# xmcd
#
# Track frame offsets:
# 150
# 14193
# 26014
# 42101
# 57798
# 73624
# 87575
# 101963
# 118338
# 132340
# 147075
# 159018
# 173547
# 192992
# 207278
# 227984
# 245987
# 259773
# 277727
#
# Disc length: 3914 seconds
#
# Revision: 0
# Processed by: cddbd v1.4PL0 Copyright (c) Steve Scherf et al.
# Submitted via: Audion 2.6.0 (http://www.panic.com/audion/)
#
DISCID=180f4813
DTITLE=bgdsfgdsf - dfvgdf
DYEAR=1900
DGENRE=
TTITLE0=bhdfb
TTITLE1=bdfbgdf
TTITLE2=dfvg
TTITLE3=gdfgdfsg
TTITLE4=dfsgdfsgdfgdfdfggdfbgdfgdf
TTITLE5=df
TTITLE6=dfgdsfgdfgsdgfdsg
TTITLE7=fgdf
TTITLE8=gdsgdf
TTITLE9=dfs
TTITLE10=df
TTITLE11=dfsgdfsdfs
TTITLE12=dfg
TTITLE13=dfdfsdfsgg
TTITLE14=dfsgdfsdfgs
TTITLE15=dfg
TTITLE16=dfg
TTITLE17=dfdfdfgdfgs
TTITLE18=dfgs
EXTD=
EXTT0=
EXTT1=
EXTT2=
EXTT3=
EXTT4=
EXTT5=
EXTT6=
EXTT7=
EXTT8=
EXTT9=
EXTT10=
EXTT11=
EXTT12=
EXTT13=
EXTT14=
EXTT15=
EXTT16=
EXTT17=
EXTT18=
PLAYORDER=
